<svg xmlns="http://www.w3.org/2000/svg" xmlns:xlink="http://www.w3.org/1999/xlink" width="50" zoomAndPan="magnify" viewBox="0 0 37.5 37.499999" height="50" preserveAspectRatio="xMidYMid meet" version="1.0"><defs><g/><clipPath id="f2108dba6c"><path d="M 0.824219 0 L 36.304688 0 L 36.304688 35.476562 L 0.824219 35.476562 Z M 0.824219 0 " clip-rule="nonzero"/></clipPath></defs><g clip-path="url(#f2108dba6c)"><path fill="#ffffff" d="M 18.5625 35.476562 C 13.828125 35.476562 9.367188 33.632812 6.023438 30.28125 C 2.667969 26.933594 0.824219 22.476562 0.824219 17.738281 C 0.824219 13.003906 2.667969 8.542969 6.023438 5.195312 C 9.367188 1.84375 13.828125 0 18.5625 0 C 23.300781 0 27.757812 1.84375 31.105469 5.195312 C 34.460938 8.550781 36.304688 13.003906 36.304688 17.738281 C 36.304688 22.476562 34.460938 26.933594 31.105469 30.28125 C 27.757812 33.632812 23.300781 35.476562 18.5625 35.476562 Z M 18.5625 1.0625 C 14.113281 1.0625 9.921875 2.800781 6.773438 5.949219 C 3.625 9.097656 1.886719 13.285156 1.886719 17.738281 C 1.886719 22.191406 3.625 26.382812 6.773438 29.53125 C 9.921875 32.675781 14.113281 34.414062 18.5625 34.414062 C 23.015625 34.414062 27.207031 32.675781 30.355469 29.53125 C 33.503906 26.382812 35.238281 22.191406 35.238281 17.738281 C 35.238281 13.285156 33.503906 9.097656 30.355469 5.949219 C 27.207031 2.800781 23.015625 1.0625 18.5625 1.0625 Z M 18.5625 1.0625 " fill-opacity="1" fill-rule="nonzero"/></g><g fill="#ffffff" fill-opacity="1"><g transform="translate(7.027662, 26.585293)"><g><path d="M 1.8125 0 L 4.984375 0 L 4.984375 -13.136719 L 10.164062 -13.136719 L 10.164062 -4.359375 L 13.335938 -4.359375 L 13.335938 -13.136719 L 18.488281 -13.136719 L 18.488281 0 L 21.660156 0 L 21.660156 -13.136719 L 18.488281 -16.308594 L 4.984375 -16.308594 L 1.8125 -13.136719 Z M 1.8125 0 "/></g></g></g></svg>